#!OML:ASF E:\Steps\Project 1\Capture day 1\Session 2\Subject.ASF
:FULLY-SPECIFIED
:DEGREES
326
root 8.46774 16.0374 22.8414 -155.965 0.70738 178.489
lowerback -24.2865 -3.01601 -5.71249
upperback 1.84891 -2.22213 0.209602
thorax 16.1602 -1.45031 2.70126
lowerneck -5.69462 -1.59204 0.208383
upperneck 15.8236 -2.00639 2.57116
head 5.73662 -0.546959 0.66376
rclavicle 1.59028e-015 6.36111e-015
rhumerus -42.2699 -20.6384 -72.6844
rradius 31.9402
rwrist 1.2051
rhand -8.15085 -54.2574
rfingers 7.12502
rthumb 17.7637 276.534
lclavicle 1.59028e-015 6.36111e-015
lhumerus -29.6192 4.12654 77.7523
lradius 36.5818
lwrist 1.14513
lhand -22.5127 -12.1745
lfingers 7.12502
lthumb 3.91373 17.7693
rfemur -45.5384 6.7554 8.8373
rtibia 9.62264
rfoot -12.0048 -13.2901
rtoes -31.5188
lfemur -16.6435 -10.1222 -22.7053
ltibia 13.6025
lfoot -15.107 1.64025
ltoes -35.4609
327
root 8.49171 16.0228 22.7353 -156.056 0.600335 178.491
lowerback -24.2709 -3.0299 -5.73919
upperback 1.90615 -2.24805 0.271097
thorax 16.2281 -1.4732 2.77728
lowerneck -5.70157 -1.63441 0.198687
upperneck 15.8089 -2.07166 2.6234
head 5.73474 -0.57592 0.677362
rclavicle -1.98785e-016 2.38542e-015
rhumerus -42.4511 -21.2886 -72.2079
rradius 31.3121
rwrist 1.68658
rhand -8.05543 -54.4983
rfingers 7.12502
rthumb 17.8555 276.301
lclavicle -1.98785e-016 2.38542e-015
lhumerus -29.4041 4.29015 77.6903
lradius 36.4516
lwrist 0.989671
lhand -22.5083 -12.4935
lfingers 7.12502
lthumb 3.9179 17.4502
rfemur -45.2034 6.83646 8.89678
rtibia 8.51971
rfoot -11.491 -12.724
rtoes -32.9106
lfemur -16.1795 -10.1944 -22.6693
ltibia 13.7724
lfoot -15.4199 1.62618
ltoes -36.6215
328
root 8.51738 16.0061 22.6254 -156.112 0.365195 178.507
lowerback -23.7677 -3.08988 -5.75634
upperback 1.60494 -2.36846 0.374384
thorax 15.5845 -1.51095 2.88172
lowerneck -5.56109 -1.77299 0.216042
upperneck 16.0081 -2.22879 2.54191
head 5.77377 -0.64568 0.640444
rclavicle 1.49089e-015 4.57205e-015
rhumerus -43.1974 -21.5351 -71.5943
rradius 30.6665
rwrist 2.03993
rhand -8.09552 -54.6165
rfingers 7.12502
rthumb 17.8169 276.18
lclavicle 1.49089e-015 4.57205e-015
lhumerus -29.8932 4.26713 77.6354
lradius 36.4879
lwrist 1.01094
lhand -22.3659 -13.2145
lfingers 7.12502
lthumb 4.05543 16.7267
rfemur -44.8719 6.41219 9.41914
rtibia 7.78096
rfoot -10.796 -11.9846
rtoes -35.6713
lfemur -15.8033 -10.2775 -22.5639
ltibia 14.0382
lfoot -15.6238 1.47261
ltoes -36.953
329
root 8.5426 15.988 22.5133 -156.17 0.19544 178.457
lowerback -24.3217 -3.01903 -5.80956
upperback 1.90776 -2.45534 0.36188
thorax 16.2806 -1.67175 2.81636
lowerneck -5.87524 -1.67281 0.390787
upperneck 16.119 -2.11217 2.45397
head 5.85869 -0.583901 0.589534
rclavicle 1.03368e-014 1.0138e-014
rhumerus -43.0608 -22.1797 -71.4764
rradius 30.1711
rwrist 2.49302
rhand -8.22877 -54.7243
rfingers 7.12502
rthumb 17.6887 276.06
lclavicle 1.03368e-014 1.0138e-014
lhumerus -29.386 4.32027 77.5338
lradius 36.4037
lwrist 1.20726
lhand -22.3284 -13.3868
lfingers 7.12502
lthumb 4.09161 16.5537
rfemur -44.6566 6.34052 9.5929
rtibia 7.44001
rfoot -10.2902 -11.6555
rtoes -36.4401
lfemur -15.4268 -10.3336 -22.561
ltibia 14.2851
lfoot -15.7661 1.40111
ltoes -37.1466
330
root 8.56582 15.9694 22.4008 -156.138 0.117859 178.378
lowerback -24.3695 -3.09164 -5.874
upperback 1.82938 -2.54499 0.417549
thorax 16.2282 -1.71983 2.88381
lowerneck -5.93008 -1.68256 0.356614
upperneck 16.2513 -2.11413 2.43421
head 5.90985 -0.582981 0.588912
rclavicle 9.44227e-015 -6.36111e-015
rhumerus -43.4324 -22.5245 -71.047
rradius 29.7896
rwrist 2.66994
rhand -7.93027 -54.6457
rfingers 7.12502
rthumb 17.9759 276.165
lclavicle 9.44227e-015 -6.36111e-015
lhumerus -29.4916 4.54489 77.4473
lradius 36.3259
lwrist 1.31493
lhand -22.1033 -13.0641
lfingers 7.12502
lthumb 4.30897 16.8721
rfemur -44.5757 6.72734 9.35974
rtibia 7.27657
rfoot -9.97141 -11.774
rtoes -35.3527
lfemur -15.17 -10.4161 -22.6229
ltibia 14.5899
lfoot -15.8002 1.45407
ltoes -37.8159
331
root 8.59014 15.9522 22.284 -156.084 -0.081684 178.304
lowerback -24.2764 -3.20288 -5.95253
upperback 1.67395 -2.70336 0.51928
thorax 16.0101 -1.7989 2.99224
lowerneck -5.78785 -1.71417 0.238282
upperneck 16.2083 -2.15409 2.5513
head 5.87472 -0.600567 0.643685
rclavicle 8.74653e-015 7.15625e-015
rhumerus -43.8175 -22.9585 -70.4076
rradius 29.1624
rwrist 3.0435
rhand -7.5017 -54.2544
rfingers 7.12502
rthumb 18.3883 276.595
lclavicle 8.74653e-015 7.15625e-015
lhumerus -29.7779 4.7764 77.3992
lradius 36.443
lwrist 1.60901
lhand -21.6695 -12.7462
lfingers 7.12502
lthumb 4.72788 17.1811
rfemur -44.4225 6.86887 9.37599
rtibia 7.36325
rfoot -9.7307 -11.8622
rtoes -36.3946
lfemur -15.0148 -10.553 -22.6368
ltibia 15.133
lfoot -15.8345 1.48363
ltoes -38.7031
332
root 8.61834 15.9394 22.1633 -156.168 -0.224014 178.261
lowerback -24.6978 -3.28571 -5.92843
upperback 2.26145 -2.7722 0.565845
thorax 16.2607 -1.81832 2.85253
lowerneck -5.8532 -1.68738 0.321334
upperneck 15.912 -2.16991 2.68802
head 5.79409 -0.607692 0.670172
rclavicle -1.68967e-015 7.95139e-015
rhumerus -43.6133 -23.7618 -70.1842
rradius 28.5124
rwrist 3.68652
rhand -7.49649 -54.1826
rfingers 7.12502
rthumb 18.3933 276.667
lclavicle -1.68967e-015 7.95139e-015
lhumerus -29.4947 4.95205 77.2606
lradius 36.5778
lwrist 1.89789
lhand -21.4398 -12.5187
lfingers 7.12502
lthumb 4.94965 17.4035
rfemur -44.2287 6.37998 10.0765
rtibia 7.97644
rfoot -9.18043 -11.0534
rtoes -39.367
lfemur -14.6555 -10.6112 -22.6266
ltibia 15.5806
lfoot -16.0319 1.42205
ltoes -39.3882
333
root 8.64453 15.9246 22.0433 -156.152 -0.402772 178.316
lowerback -24.8029 -3.37301 -5.89956
upperback 2.21898 -2.91343 0.697816
thorax 16.2869 -1.88476 2.92439
lowerneck -5.92162 -1.70573 0.358688
upperneck 16.0512 -2.16923 2.50006
head 5.84697 -0.614342 0.604797
rclavicle -2.68359e-015 6.95746e-015
rhumerus -43.8537 -23.7308 -70.0705
rradius 28.3337
rwrist 3.51329
rhand -8.09907 -54.5828
rfingers 7.12502
rthumb 17.8135 276.213
lclavicle -2.68359e-015 6.95746e-015
lhumerus -29.6504 5.27494 77.2329
lradius 36.4325
lwrist 1.76171
lhand -21.4486 -12.3822
lfingers 7.12502
lthumb 4.94117 17.5402
rfemur -43.8999 6.68701 10.226
rtibia 8.03041
rfoot -8.06026 -11.2584
rtoes -41.3045
lfemur -14.4186 -10.737 -22.4771
ltibia 16.0026
lfoot -16.2129 1.47107
ltoes -40.1231
334
root 8.67379 15.913 21.9253 -156.21 -0.660096 178.395
lowerback -24.7547 -3.45926 -5.77084
upperback 1.80655 -3.08524 0.707601
thorax 16.4964 -1.97081 2.94337
lowerneck -5.89674 -1.65949 0.233867
upperneck 16.2599 -2.08328 2.5482
head 5.90892 -0.566091 0.647575
rclavicle -2.60408e-014 -8.54774e-015
rhumerus -44.3663 -24.2396 -69.4911
rradius 27.8852
rwrist 4.37549
rhand -7.92491 -54.5146
rfingers 7.12502
rthumb 17.9811 276.297
lclavicle -2.60408e-014 -8.54774e-015
lhumerus -29.9322 5.54476 77.0658
lradius 36.1942
lwrist 1.54864
lhand -21.4173 -12.3304
lfingers 7.12502
lthumb 4.97143 17.5913
rfemur -43.4787 6.64373 10.7115
rtibia 8.22951
rfoot -7.57887 -10.5916
rtoes -42.0593
lfemur -14.2054 -10.831 -22.2738
ltibia 16.7073
lfoot -16.4327 1.42276
ltoes -40.2373
